<?xml version="1.0" standalone="no"?>
<!DOCTYPE svg PUBLIC "-//W3C//DTD SVG 20010904//EN"
 "http://www.w3.org/TR/2001/REC-SVG-20010904/DTD/svg10.dtd">
<svg version="1.0" xmlns="http://www.w3.org/2000/svg"
 width="1024.000000pt" height="1024.000000pt" viewBox="0 0 1024.000000 1024.000000"
 preserveAspectRatio="xMidYMid meet">

<g transform="translate(0.000000,1024.000000) scale(0.100000,-0.100000)"
fill="#000000" stroke="none">
<path d="M0 5120 l0 -5120 5120 0 5120 0 0 5120 0 5120 -5120 0 -5120 0 0
-5120z m4480 3144 c124 -28 274 -144 309 -239 27 -71 41 -192 41 -347 l0 -128
1306 0 c844 0 1312 -4 1324 -10 39 -21 50 -121 16 -149 -16 -14 -48 -19 -116
-20 -88 -2 -90 -6 -46 -103 21 -46 71 -157 111 -248 40 -91 96 -214 125 -275
29 -60 122 -263 207 -450 85 -187 176 -387 203 -445 26 -58 91 -199 143 -315
318 -701 301 -657 293 -790 -22 -372 -259 -718 -631 -920 -302 -165 -679 -196
-1025 -84 -151 49 -322 152 -461 279 -151 137 -278 339 -335 535 -32 108 -44
298 -24 361 7 22 116 264 242 539 127 275 268 583 315 685 47 102 111 241 143
310 405 873 419 903 413 913 -2 4 -492 7 -1088 7 -972 0 -1085 -2 -1099 -16
-14 -14 -16 -259 -16 -2550 l0 -2534 490 0 c344 0 496 -3 514 -11 39 -18 59
-96 35 -141 -26 -48 -17 -48 -967 -48 -611 0 -899 3 -920 11 -53 18 -66 118
-21 164 19 19 35 20 353 23 l333 3 7 261 c5 161 4 264 -2 270 -6 6 -35 -3 -78
-25 -124 -61 -223 -87 -336 -87 -102 0 -171 19 -258 71 -74 45 -80 50 -174
148 l-69 71 -61 0 c-321 1 -591 168 -704 437 -19 44 -50 163 -56 213 -4 29
-16 38 -59 45 -67 12 -72 13 -139 31 -227 63 -382 170 -506 352 -135 197 -182
342 -184 562 0 85 5 163 15 210 l15 75 -37 50 c-126 169 -181 355 -181 610 0
103 20 243 46 324 22 67 110 239 147 288 18 23 59 77 93 121 l60 79 13 104
c23 201 100 393 212 535 94 117 245 239 349 280 54 22 56 23 105 120 28 55 63
117 77 140 155 241 458 414 728 414 l68 0 79 76 c152 148 213 183 366 214 116
23 209 24 297 4z m1746 -6318 c18 -25 20 -186 2 -204 -15 -15 -2529 -18 -2557
-2 -12 6 -21 26 -25 52 -6 43 5 143 18 155 18 18 183 21 1324 19 1199 -1 1224
-1 1238 -20z"/>
<path d="M4209 8071 c-71 -23 -240 -123 -287 -170 -19 -20 -48 -63 -63 -96
-128 -272 -66 -597 143 -751 32 -23 82 -50 111 -59 28 -10 62 -23 74 -31 45
-28 38 -117 -12 -144 -66 -35 -228 27 -340 131 -79 74 -178 218 -201 292 -20
66 -29 141 -29 237 0 90 13 228 26 273 5 17 9 33 9 34 0 18 -187 -40 -271 -83
-178 -93 -341 -300 -384 -488 -25 -107 -27 -136 -16 -241 21 -196 99 -335 238
-428 83 -55 201 -115 243 -123 97 -20 107 -178 12 -198 -29 -7 -220 67 -304
117 -202 119 -368 417 -368 659 0 90 -5 94 -73 51 -70 -44 -145 -131 -217
-253 -85 -142 -105 -202 -121 -357 -15 -143 -7 -211 41 -368 82 -270 212 -409
445 -475 81 -23 105 -46 105 -100 0 -38 -34 -89 -62 -91 -109 -11 -290 69
-409 179 -124 114 -199 237 -250 407 -14 49 -31 91 -37 93 -16 5 -103 -134
-128 -206 -34 -98 -48 -200 -47 -342 0 -296 116 -521 333 -650 106 -63 206
-92 320 -91 54 0 119 5 146 12 76 18 191 78 248 129 71 64 96 80 129 80 60 0
100 -58 83 -124 -19 -76 -242 -216 -417 -261 -76 -20 -254 -28 -324 -15 -88
17 -182 51 -252 92 -64 37 -68 38 -81 21 -35 -45 12 -333 74 -456 67 -133 168
-240 300 -317 73 -43 115 -58 234 -85 41 -10 80 -19 86 -22 5 -2 18 22 28 54
61 192 209 348 411 430 106 43 137 43 182 -2 31 -31 35 -40 29 -68 -9 -45 -29
-61 -121 -97 -127 -50 -205 -108 -267 -197 -124 -182 -88 -494 77 -646 79 -74
226 -139 340 -151 80 -9 85 -4 74 64 -10 59 -4 166 13 240 15 65 92 225 136
282 70 92 147 115 203 59 43 -44 38 -68 -38 -163 -177 -222 -185 -404 -28
-624 37 -51 57 -69 108 -93 77 -38 183 -56 271 -47 50 6 89 20 168 59 117 59
143 88 153 170 8 72 1 4696 -8 4727 -3 14 -9 39 -13 55 -16 80 -86 152 -169
174 -61 17 -192 12 -256 -8z m-24 -1866 c64 -31 75 -103 30 -220 -70 -188
-232 -357 -396 -415 -66 -23 -165 -40 -233 -40 -56 0 -159 25 -198 48 -55 32
-57 117 -5 156 26 19 29 19 99 3 212 -50 381 17 499 196 37 57 51 91 83 208
21 75 56 94 121 64z m-292 -1270 c78 -32 212 -136 266 -208 51 -67 111 -196
111 -237 0 -19 -9 -40 -24 -55 -57 -57 -133 -37 -163 44 -40 109 -141 217
-248 267 -39 18 -83 44 -98 58 -36 33 -37 83 -1 125 33 39 70 40 157 6z"/>
<path d="M7131 7123 c-13 -27 -70 -149 -126 -273 -57 -124 -177 -385 -268
-580 -90 -195 -174 -377 -187 -405 -37 -83 -366 -795 -399 -865 -17 -36 -31
-73 -31 -82 0 -17 55 -18 1025 -18 872 0 1026 2 1031 14 3 8 -22 74 -57 148
-48 104 -299 658 -554 1223 -13 28 -37 82 -55 120 -18 39 -81 180 -142 315
-115 258 -205 450 -211 450 -1 0 -14 -21 -26 -47z"/>
<path d="M6163 4883 c15 -2 37 -2 50 0 12 2 0 4 -28 4 -27 0 -38 -2 -22 -4z"/>
<path d="M6548 4883 c7 -3 16 -2 19 1 4 3 -2 6 -13 5 -11 0 -14 -3 -6 -6z"/>
<path d="M7738 4883 c7 -3 16 -2 19 1 4 3 -2 6 -13 5 -11 0 -14 -3 -6 -6z"/>
<path d="M6090 4702 c0 -35 32 -135 70 -220 170 -373 579 -632 1000 -632 405
0 797 237 974 587 32 65 71 183 80 246 l7 47 -1065 0 -1066 0 0 -28z"/>
<path d="M3821 3314 c0 -11 3 -14 6 -6 3 7 2 16 -1 19 -3 4 -6 -2 -5 -13z"/>
</g>
</svg>
